<?xml version="1.0" encoding="utf-8"?><svg viewBox="0 0 60 60" xmlns="http://www.w3.org/2000/svg" xmlns:xlink="http://www.w3.org/1999/xlink"><style>:root>svg{display:none}:root>svg:target{display:block}</style><svg viewBox="0 0 48 48" id="inst" xmlns="http://www.w3.org/2000/svg"><radialGradient id="aa" cx="19.38" cy="42.035" r="44.899" gradientUnits="userSpaceOnUse"><stop offset="0" stop-color="#fd5"/><stop offset=".328" stop-color="#ff543f"/><stop offset=".348" stop-color="#fc5245"/><stop offset=".504" stop-color="#e64771"/><stop offset=".643" stop-color="#d53e91"/><stop offset=".761" stop-color="#cc39a4"/><stop offset=".841" stop-color="#c837ab"/></radialGradient><path fill="url(#aa)" d="M34.017 41.99l-20 .019c-4.4.004-8.003-3.592-8.008-7.992l-.019-20c-.004-4.4 3.592-8.003 7.992-8.008l20-.019c4.4-.004 8.003 3.592 8.008 7.992l.019 20c.005 4.401-3.592 8.004-7.992 8.008z"/><radialGradient id="ab" cx="11.786" cy="5.54" r="29.813" gradientTransform="matrix(1 0 0 .6663 0 1.849)" gradientUnits="userSpaceOnUse"><stop offset="0" stop-color="#4168c9"/><stop offset=".999" stop-color="#4168c9" stop-opacity="0"/></radialGradient><path fill="url(#ab)" d="M34.017 41.99l-20 .019c-4.4.004-8.003-3.592-8.008-7.992l-.019-20c-.004-4.4 3.592-8.003 7.992-8.008l20-.019c4.4-.004 8.003 3.592 8.008 7.992l.019 20c.005 4.401-3.592 8.004-7.992 8.008z"/><path fill="#fff" d="M24 31c-3.859 0-7-3.14-7-7s3.141-7 7-7 7 3.14 7 7-3.141 7-7 7zm0-12c-2.757 0-5 2.243-5 5s2.243 5 5 5 5-2.243 5-5-2.243-5-5-5z"/><circle cx="31.5" cy="16.5" r="1.5" fill="#fff"/><path fill="#fff" d="M30 37H18c-3.859 0-7-3.14-7-7V18c0-3.86 3.141-7 7-7h12c3.859 0 7 3.14 7 7v12c0 3.86-3.141 7-7 7zM18 13c-2.757 0-5 2.243-5 5v12c0 2.757 2.243 5 5 5h12c2.757 0 5-2.243 5-5V18c0-2.757-2.243-5-5-5H18z"/></svg><svg fill="none" viewBox="0 0 60 60" id="telegram" xmlns="http://www.w3.org/2000/svg"><path d="M30 60c16.569 0 30-13.431 30-30C60 13.431 46.569 0 30 0 13.431 0 0 13.431 0 30c0 16.569 13.431 30 30 30z" fill="url(#bpaint0_linear_57972_999)"/><path fill-rule="evenodd" clip-rule="evenodd" d="M13.58 29.683l17.495-7.536c8.331-3.465 10.063-4.067 11.19-4.087.249-.004.804.057 1.163.35.304.245.387.578.427.811.04.234.09.766.05 1.181-.451 4.744-2.404 16.256-3.398 21.569-.421 2.248-1.248 3.002-2.05 3.076-1.743.16-3.066-1.152-4.753-2.258l-6.695-4.497c-2.962-1.952-1.042-3.025.646-4.778.442-.459 8.118-7.44 8.266-8.074.018-.08.036-.374-.14-.53-.175-.156-.434-.102-.62-.06-.265.06-4.483 2.848-12.655 8.364-1.197.822-2.281 1.222-3.253 1.201-1.071-.023-3.132-.605-4.663-1.103-1.88-.611-3.372-.934-3.242-1.971.067-.54.811-1.093 2.231-1.658z" fill="#fff"/><defs><linearGradient id="bpaint0_linear_57972_999" x1="30" y1="0" x2="30" y2="59.555" gradientUnits="userSpaceOnUse"><stop stop-color="#2AABEE"/><stop offset="1" stop-color="#229ED9"/></linearGradient></defs></svg><svg viewBox="0 0 48 48" id="vk" xmlns="http://www.w3.org/2000/svg"><linearGradient id="ca" x1="9.766" x2="37.851" y1="5.625" y2="41.881" gradientUnits="userSpaceOnUse"><stop offset="0" stop-color="#33bef0"/><stop offset="1" stop-color="#0a85d9"/></linearGradient><path fill="url(#ca)" d="M24 4C12.954 4 4 12.954 4 24s8.954 20 20 20 20-8.954 20-20S35.046 4 24 4z"/><path d="M31.411 34c-1.185 0-1.771-.77-2.584-1.834a30.034 30.034 0 00-1.212-1.514c-.802-.937-1.324-1.343-1.616-1.519v2.773C25.999 34 24.002 34 23.149 34c-3.154 0-6.549-2.069-9.081-5.535C10.747 23.922 10 19.844 10 18.774 10 17.68 10.724 17 11.89 17h2.644c1.544 0 1.946 1.231 2.119 1.756.78 2.614 1.707 4.458 2.348 5.447v-2.866c-.045-.803-.27-1.112-.508-1.439-.208-.284-.493-.673-.493-1.257 0-.92.711-1.641 1.619-1.641h4.648c.521 0 1.733.196 1.733 2.014v4.821c.043-.04.092-.089.149-.15 1.738-2.049 3.32-5.287 3.336-5.319.398-.889 1.107-1.366 2.046-1.366h2.618c1.231 0 1.816.795 1.85 1.584a2.24 2.24 0 01-.107.753c-.199.989-1.313 2.947-3.603 6.3l-.192.286-.053.09.018.025c.283.405.99 1.259 1.458 1.824 1.118 1.351 2.116 2.883 2.372 3.645.082.303.113.537.108.766-.024.861-.643 1.727-1.971 1.727h-2.618z" opacity=".05"/><path d="M31.411 33.5c-.937 0-1.407-.616-2.187-1.638-.318-.418-.709-.93-1.229-1.537-1.451-1.694-2.11-1.826-2.278-1.826a.994.994 0 00-.2.014c.012.013-.018.125-.018.42v2.971c0 1.323-.939 1.594-2.35 1.594-2.995 0-6.239-1.993-8.678-5.33-3.242-4.436-3.972-8.368-3.972-9.396 0-.821.493-1.274 1.39-1.274h2.644c1.09 0 1.42.729 1.644 1.412 1.176 3.938 2.731 6.314 3.29 6.569.017-.086.033-.243.033-.521v-3.623c-.054-.979-.346-1.379-.604-1.734-.186-.253-.396-.541-.396-.96 0-.65.481-1.141 1.119-1.141h4.648c.817 0 1.232.509 1.232 1.514v5.185c0 .257.157.303.164.304.227-.003.4-.003.848-.473 1.798-2.118 3.409-5.415 3.425-5.448.318-.713.856-1.082 1.595-1.082h2.618c.962 0 1.327.571 1.35 1.105a1.74 1.74 0 01-.085.584c-.255 1.25-2.142 4.12-3.538 6.166-.092.135-.195.29-.195.29-.075.129-.178.305-.182.379-.001.025.012.104.156.306.286.41.976 1.243 1.479 1.852 1.066 1.288 2.048 2.786 2.283 3.485.062.231.086.42.082.595-.017.6-.412 1.238-1.471 1.238h-2.617z" opacity=".07"/><path fill="#fff" d="M34.937 19.041c.046-.151.068-.291.062-.416-.015-.362-.264-.625-.85-.625h-2.618c-.661 0-.966.4-1.144.801 0 0-1.632 3.359-3.513 5.574-.61.641-.92.625-1.25.625-.177 0-.624-.214-.624-.801v-5.185c0-.694-.173-1.014-.732-1.014h-4.649c-.407 0-.619.32-.619.641 0 .667.898.827 1 2.696v3.623c0 .88-.153 1.04-.483 1.04-.89 0-2.642-3-3.815-6.932-.254-.774-.508-1.068-1.169-1.068H11.89c-.763 0-.89.374-.89.774 0 .721.6 4.619 3.875 9.101C17.25 31.125 20.379 33 23.149 33c1.678 0 1.85-.427 1.85-1.094v-2.972c.001-.801.184-.934.718-.934.381 0 1.158.25 2.658 2 1.73 2.018 2.044 3 3.036 3h2.618c.608 0 .957-.255.971-.75a1.542 1.542 0 00-.056-.424c-.194-.576-1.084-1.984-2.194-3.326-.615-.743-1.222-1.479-1.501-1.879-.187-.261-.258-.445-.249-.621.009-.185.105-.361.249-.607-.026 0 3.358-4.751 3.688-6.352z"/></svg><svg fill="none" viewBox="0 0 40 40" id="whatsapp" xmlns="http://www.w3.org/2000/svg"><path d="M20 39.375c10.7 0 19.375-8.674 19.375-19.375C39.375 9.3 30.701.625 20 .625 9.3.625.625 9.299.625 20 .625 30.7 9.299 39.375 20 39.375z" fill="#30BF39"/><path d="M25.875 21.751c-.25-.125-1.563-.875-1.813-.938-.25-.124-.437-.124-.625.126-.187.25-.75.875-.875 1-.187.187-.312.187-.562.062-.25-.125-1.125-.438-2.125-1.438-.75-.75-1.313-1.624-1.438-1.937-.125-.25 0-.438.125-.563.125-.124.25-.312.438-.437.187-.125.187-.25.312-.438.125-.187.063-.312 0-.5-.062-.187-.562-1.5-.75-2.062-.187-.563-.437-.438-.562-.5-.188 0-.313-.063-.5-.063-.25 0-.563.125-.75.313-.25.25-1 .875-1 2.188 0 1.312.875 2.687 1 2.812.125.188 1.75 3.063 4.437 4.25 2.688 1.188 2.688.813 3.188.813S26 23.814 26.25 23.25c.25-.625.25-1.188.187-1.25-.125 0-.312-.063-.562-.25zm-5 6.438c-1.75 0-3.375-.5-4.813-1.438l-3.375 1.063 1.125-3.25c-1.062-1.5-1.687-3.313-1.687-5.188a8.802 8.802 0 018.812-8.813c4.875 0 8.75 3.938 8.75 8.813a8.802 8.802 0 01-8.812 8.813zm0-19.376c-5.813 0-10.563 4.75-10.563 10.563 0 1.938.5 3.813 1.5 5.438L9.875 30.5l5.875-1.875c1.562.875 3.312 1.313 5.125 1.313 5.812 0 10.562-4.75 10.562-10.563 0-5.813-4.687-10.563-10.562-10.563z" fill="#fff"/></svg></svg>